<svg width="1515" height="1015" viewBox="0 0 1515 1015" fill="none" xmlns="http://www.w3.org/2000/svg">
<g clip-path="url(#clip0_202_2)">
<path fill-rule="evenodd" clip-rule="evenodd" d="M284.2 271.35L215.18 208.575L160.37 297.675L125.86 342.225L89.32 386.775L48.72 433.35L0 486L109.62 405L164.43 358.425L215.18 305.775L288.26 338.175L330.89 297.675L373.52 253.125L424.27 194.4L450.66 162L529.83 194.4L633.36 91.125L667.87 127.575L702.38 162L738.92 194.4L778.981 220.375L778.242 220.931L746.39 245.168L700.154 279.505L657 307.782L674.74 325.219L625.567 279.38L550.661 338.09L461.583 394.776L283.428 496L362.383 469.682L461.583 429.192L550.661 386.678L625.567 338.09L680.228 370.482L710.596 382.629L745.012 390.727L679.761 329.899L733.033 295.663L784.407 259.307L839.89 220.931L889.209 180.535L913.868 200.733L938.527 220.931L965.242 241.129L989.901 259.307L993.838 256.792L981.878 265.208L931.266 309.747L882.678 348.212L927.217 334.041L977.829 313.796L1032.49 289.502L1083.1 263.184L1190.4 327.967L1295.67 386.678L1514.32 496L1405 427.167L1382.05 411.87L1364.66 290.168L1330.09 267.345L1346.94 241.822L1321.55 225.065L1304.7 250.589L1247.81 213.031L1238.19 163.825L1082.97 195.5V195.518L1036.54 226.743L1029.25 231.87L998.121 210.832L961.132 182.554L926.198 156.297L893.319 126L839.89 174.475L813.176 194.673L792.346 210.329L812 194.4L773.43 162L722.68 111.375L637.42 0L611.03 34.425L580.58 66.825L544.04 103.275L517.65 121.5L432.39 91.125L399.91 141.75L361.34 188.325L320.74 236.925L284.2 271.35ZM1104.77 213.998L1131.69 236.865L1186.35 277.355L1243.08 317.272L1218.49 193.675L1104.77 213.998ZM1178.89 212L1192.98 221.303L1183.77 235.266L1169.67 225.962L1178.89 212ZM1180.31 240.502L1166.22 231.198L1157 245.16L1171.09 254.464L1180.31 240.502ZM1185.6 243.99L1199.69 253.294L1190.47 267.256L1176.38 257.953L1185.6 243.99ZM1212.36 234.096L1198.27 224.792L1189.05 238.755L1203.15 248.058L1212.36 234.096Z" fill="white"/>
<mask id="mask0_202_2" style="mask-type:luminance" maskUnits="userSpaceOnUse" x="0" y="0" width="1515" height="496">
<path fill-rule="evenodd" clip-rule="evenodd" d="M284.2 271.35L215.18 208.575L160.37 297.675L125.86 342.225L89.32 386.775L48.72 433.35L0 486L109.62 405L164.43 358.425L215.18 305.775L288.26 338.175L330.89 297.675L373.52 253.125L424.27 194.4L450.66 162L529.83 194.4L633.36 91.125L667.87 127.575L702.38 162L738.92 194.4L778.981 220.375L778.242 220.931L746.39 245.168L700.154 279.505L657 307.782L674.74 325.219L625.567 279.38L550.661 338.09L461.583 394.776L283.428 496L362.383 469.682L461.583 429.192L550.661 386.678L625.567 338.09L680.228 370.482L710.596 382.629L745.012 390.727L679.761 329.899L733.033 295.663L784.407 259.307L839.89 220.931L889.209 180.535L913.868 200.733L938.527 220.931L965.242 241.129L989.901 259.307L993.838 256.792L981.878 265.208L931.266 309.747L882.678 348.212L927.217 334.041L977.829 313.796L1032.49 289.502L1083.1 263.184L1190.4 327.967L1295.67 386.678L1514.32 496L1405 427.167L1382.05 411.87L1364.66 290.168L1330.09 267.345L1346.94 241.822L1321.55 225.065L1304.7 250.589L1247.81 213.031L1238.19 163.825L1082.97 195.5V195.518L1036.54 226.743L1029.25 231.87L998.121 210.832L961.132 182.554L926.198 156.297L893.319 126L839.89 174.475L813.176 194.673L792.346 210.329L812 194.4L773.43 162L722.68 111.375L637.42 0L611.03 34.425L580.58 66.825L544.04 103.275L517.65 121.5L432.39 91.125L399.91 141.75L361.34 188.325L320.74 236.925L284.2 271.35ZM1104.77 213.998L1131.69 236.865L1186.35 277.355L1243.08 317.272L1218.49 193.675L1104.77 213.998ZM1178.89 212L1192.98 221.303L1183.77 235.266L1169.67 225.962L1178.89 212ZM1180.31 240.502L1166.22 231.198L1157 245.16L1171.09 254.464L1180.31 240.502ZM1185.6 243.99L1199.69 253.294L1190.47 267.256L1176.38 257.953L1185.6 243.99ZM1212.36 234.096L1198.27 224.792L1189.05 238.755L1203.15 248.058L1212.36 234.096Z" fill="black"/>
</mask>
<g mask="url(#mask0_202_2)">
<path d="M215.18 208.575L215.853 207.835L214.96 207.023L214.328 208.051L215.18 208.575ZM284.2 271.35L283.527 272.09L284.212 272.713L284.886 272.078L284.2 271.35ZM160.37 297.675L161.161 298.287L161.194 298.245L161.222 298.199L160.37 297.675ZM125.86 342.225L126.633 342.859L126.642 342.848L126.651 342.837L125.86 342.225ZM89.3196 386.775L90.0734 387.432L90.0833 387.421L90.0928 387.409L89.3196 386.775ZM48.7196 433.35L49.4536 434.029L49.4637 434.018L49.4734 434.007L48.7196 433.35ZM-0.000406027 486L-0.734375 485.321L0.593874 486.804L-0.000406027 486ZM109.62 405L110.214 405.804L110.242 405.784L110.268 405.762L109.62 405ZM164.43 358.425L165.078 359.187L165.115 359.155L165.15 359.119L164.43 358.425ZM215.18 305.775L215.585 304.861L214.946 304.577L214.46 305.081L215.18 305.775ZM288.26 338.175L287.855 339.089L288.465 339.36L288.949 338.9L288.26 338.175ZM330.89 297.675L331.579 298.4L331.596 298.384L331.612 298.366L330.89 297.675ZM373.52 253.125L374.242 253.816L374.26 253.798L374.277 253.779L373.52 253.125ZM424.27 194.4L425.027 195.054L425.036 195.043L425.045 195.032L424.27 194.4ZM450.66 162L451.039 161.075L450.353 160.794L449.885 161.368L450.66 162ZM529.83 194.4L529.451 195.326L530.066 195.577L530.536 195.108L529.83 194.4ZM633.36 91.125L634.086 90.4375L633.38 89.6921L632.654 90.417L633.36 91.125ZM667.87 127.575L667.144 128.263L667.154 128.273L667.164 128.283L667.87 127.575ZM702.38 162L701.674 162.708L701.695 162.729L701.717 162.748L702.38 162ZM738.92 194.4L738.257 195.148L738.313 195.198L738.376 195.239L738.92 194.4ZM778.981 220.375L779.581 221.175L780.725 220.315L779.525 219.536L778.981 220.375ZM778.242 220.931L777.641 220.131L777.636 220.135L778.242 220.931ZM746.39 245.168L746.986 245.971L746.996 245.964L746.39 245.168ZM700.154 279.505L700.702 280.341L700.727 280.325L700.75 280.308L700.154 279.505ZM657 307.782L656.452 306.946L655.414 307.626L656.299 308.495L657 307.782ZM674.74 325.219L674.058 325.951L675.441 324.506L674.74 325.219ZM625.567 279.38L626.249 278.648L625.623 278.065L624.95 278.593L625.567 279.38ZM550.661 338.09L551.198 338.933L551.239 338.907L551.278 338.877L550.661 338.09ZM461.583 394.776L462.077 395.645L462.099 395.633L462.12 395.619L461.583 394.776ZM283.428 496L282.934 495.131L283.744 496.949L283.428 496ZM362.383 469.682L362.7 470.63L362.731 470.62L362.761 470.607L362.383 469.682ZM461.583 429.192L461.961 430.118L461.988 430.107L462.014 430.094L461.583 429.192ZM550.661 386.678L551.092 387.58L551.15 387.552L551.205 387.517L550.661 386.678ZM625.567 338.09L626.077 337.229L625.543 336.913L625.023 337.251L625.567 338.09ZM680.228 370.482L679.718 371.342L679.785 371.381L679.857 371.41L680.228 370.482ZM710.596 382.629L710.224 383.557L710.294 383.585L710.367 383.602L710.596 382.629ZM745.012 390.727L744.783 391.7L748.448 392.562L745.694 389.995L745.012 390.727ZM679.761 329.899L679.22 329.058L678.138 329.754L679.079 330.631L679.761 329.899ZM733.033 295.663L733.574 296.505L733.592 296.493L733.611 296.48L733.033 295.663ZM784.407 259.307L783.838 258.484L783.829 258.491L784.407 259.307ZM839.89 220.931L840.459 221.753L840.492 221.73L840.524 221.704L839.89 220.931ZM889.209 180.535L889.842 179.761L889.209 179.242L888.575 179.761L889.209 180.535ZM938.527 220.931L937.894 221.704L937.909 221.717L937.924 221.728L938.527 220.931ZM965.242 241.129L964.639 241.926L964.648 241.934L965.242 241.129ZM989.901 259.307L989.308 260.112L989.861 260.519L990.44 260.15L989.901 259.307ZM993.838 256.792L994.413 257.61L993.3 255.949L993.838 256.792ZM981.878 265.208L981.302 264.39L981.258 264.422L981.217 264.457L981.878 265.208ZM931.266 309.747L931.886 310.531L931.907 310.515L931.926 310.498L931.266 309.747ZM882.678 348.212L882.057 347.428L882.981 349.165L882.678 348.212ZM927.217 334.041L927.52 334.994L927.554 334.983L927.588 334.969L927.217 334.041ZM977.829 313.796L978.2 314.724L978.218 314.717L978.235 314.71L977.829 313.796ZM1032.49 289.502L1032.9 290.416L1032.92 290.403L1032.95 290.389L1032.49 289.502ZM1083.1 263.184L1083.62 262.328L1083.14 262.038L1082.64 262.296L1083.1 263.184ZM1190.4 327.967L1189.88 328.823L1189.9 328.832L1189.91 328.841L1190.4 327.967ZM1295.67 386.678L1295.19 387.551L1295.21 387.562L1295.23 387.572L1295.67 386.678ZM1514.32 496L1513.87 496.894L1514.85 495.154L1514.32 496ZM1405 427.167L1404.44 427.999L1404.45 428.007L1404.46 428.014L1405 427.167ZM1382.05 411.87L1381.06 412.011L1381.12 412.454L1381.49 412.702L1382.05 411.87ZM1364.66 290.168L1365.65 290.027L1365.59 289.581L1365.21 289.334L1364.66 290.168ZM1330.09 267.345L1329.25 266.794L1328.7 267.629L1329.54 268.179L1330.09 267.345ZM1346.94 241.822L1347.77 242.373L1348.32 241.538L1347.49 240.987L1346.94 241.822ZM1321.55 225.065L1322.1 224.231L1321.27 223.68L1320.72 224.514L1321.55 225.065ZM1304.7 250.589L1304.15 251.423L1304.99 251.974L1305.54 251.139L1304.7 250.589ZM1247.81 213.031L1246.83 213.223L1246.91 213.635L1247.26 213.866L1247.81 213.031ZM1238.19 163.825L1239.17 163.633L1238.98 162.644L1237.99 162.845L1238.19 163.825ZM1082.97 195.5L1082.77 194.52L1081.82 194.714L1081.98 195.667L1082.97 195.5ZM1082.97 195.518L1083.53 196.348L1084.07 195.988L1083.96 195.351L1082.97 195.518ZM1036.54 226.743L1035.98 225.913L1035.97 225.919L1035.96 225.925L1036.54 226.743ZM1029.25 231.87L1028.69 232.698L1029.27 233.084L1029.83 232.687L1029.25 231.87ZM998.121 210.832L997.514 211.626L997.537 211.644L997.561 211.66L998.121 210.832ZM961.132 182.554L961.739 181.76L961.733 181.755L961.132 182.554ZM926.198 156.297L925.52 157.032L925.557 157.066L925.597 157.096L926.198 156.297ZM893.319 126L893.996 125.265L893.324 124.645L892.647 125.259L893.319 126ZM839.89 174.475L840.493 175.273L840.529 175.246L840.562 175.216L839.89 174.475ZM813.176 194.673L813.777 195.473L813.779 195.471L813.176 194.673ZM792.346 210.329L791.717 209.552L792.947 211.129L792.346 210.329ZM812 194.4L812.63 195.177L813.571 194.414L812.643 193.634L812 194.4ZM773.43 162L772.724 162.708L772.754 162.738L772.787 162.766L773.43 162ZM722.68 111.375L721.886 111.983L721.927 112.036L721.974 112.083L722.68 111.375ZM637.42 -3.93391e-06L638.214 -0.607863L637.421 -1.64439L636.626 -0.608399L637.42 -3.93391e-06ZM611.03 34.425L611.759 35.1098L611.793 35.0733L611.824 35.0334L611.03 34.425ZM580.58 66.825L581.286 67.533L581.298 67.5216L581.309 67.5098L580.58 66.825ZM544.04 103.275L544.608 104.098L544.682 104.047L544.746 103.983L544.04 103.275ZM517.65 121.5L517.314 122.442L517.797 122.614L518.218 122.323L517.65 121.5ZM432.39 91.125L432.726 90.183L431.977 89.9164L431.548 90.585L432.39 91.125ZM399.91 141.75L400.68 142.388L400.719 142.341L400.752 142.29L399.91 141.75ZM361.34 188.325L362.107 188.966L362.11 188.963L361.34 188.325ZM320.74 236.925L321.426 237.653L321.469 237.612L321.507 237.566L320.74 236.925ZM1131.69 236.865L1131.04 237.627L1131.07 237.649L1131.09 237.669L1131.69 236.865ZM1104.77 213.998L1104.6 213.014L1102.51 213.387L1104.13 214.76L1104.77 213.998ZM1186.35 277.355L1185.76 278.159L1185.77 278.166L1185.78 278.173L1186.35 277.355ZM1243.08 317.272L1242.5 318.09L1244.54 319.528L1244.06 317.077L1243.08 317.272ZM1218.49 193.675L1219.47 193.479L1219.28 192.518L1218.31 192.69L1218.49 193.675ZM1192.98 221.303L1193.82 221.854L1194.37 221.02L1193.53 220.469L1192.98 221.303ZM1178.89 212L1179.44 211.165L1178.61 210.614L1178.06 211.449L1178.89 212ZM1183.77 235.266L1183.22 236.1L1184.05 236.651L1184.6 235.817L1183.77 235.266ZM1169.67 225.962L1168.84 225.411L1168.29 226.246L1169.12 226.797L1169.67 225.962ZM1166.22 231.198L1166.77 230.364L1165.93 229.813L1165.38 230.647L1166.22 231.198ZM1180.31 240.502L1181.14 241.053L1181.7 240.218L1180.86 239.667L1180.31 240.502ZM1157 245.16L1156.17 244.609L1155.61 245.444L1156.45 245.995L1157 245.16ZM1171.09 254.464L1170.54 255.298L1171.38 255.849L1171.93 255.015L1171.09 254.464ZM1199.69 253.294L1200.52 253.845L1201.07 253.01L1200.24 252.459L1199.69 253.294ZM1185.6 243.99L1186.15 243.156L1185.31 242.605L1184.76 243.439L1185.6 243.99ZM1190.47 267.256L1189.92 268.091L1190.76 268.642L1191.31 267.807L1190.47 267.256ZM1176.38 257.953L1175.54 257.402L1174.99 258.236L1175.83 258.787L1176.38 257.953ZM1198.27 224.792L1198.82 223.958L1197.99 223.407L1197.43 224.241L1198.27 224.792ZM1212.36 234.096L1213.2 234.647L1213.75 233.812L1212.91 233.261L1212.36 234.096ZM1189.05 238.755L1188.22 238.204L1187.67 239.038L1188.5 239.589L1189.05 238.755ZM1203.15 248.058L1202.59 248.893L1203.43 249.443L1203.98 248.609L1203.15 248.058ZM214.507 209.315L283.527 272.09L284.873 270.61L215.853 207.835L214.507 209.315ZM161.222 298.199L216.032 209.099L214.328 208.051L159.518 297.151L161.222 298.199ZM126.651 342.837L161.161 298.287L159.579 297.063L125.069 341.613L126.651 342.837ZM90.0928 387.409L126.633 342.859L125.087 341.591L88.5464 386.141L90.0928 387.409ZM49.4734 434.007L90.0734 387.432L88.5658 386.118L47.9658 432.693L49.4734 434.007ZM0.733563 486.679L49.4536 434.029L47.9856 432.671L-0.734375 485.321L0.733563 486.679ZM109.026 404.196L-0.594686 485.196L0.593874 486.804L110.214 405.804L109.026 404.196ZM163.782 357.663L108.972 404.238L110.268 405.762L165.078 359.187L163.782 357.663ZM214.46 305.081L163.71 357.731L165.15 359.119L215.9 306.469L214.46 305.081ZM288.665 337.261L215.585 304.861L214.775 306.689L287.855 339.089L288.665 337.261ZM330.201 296.95L287.571 337.45L288.949 338.9L331.579 298.4L330.201 296.95ZM372.797 252.434L330.167 296.984L331.612 298.366L374.242 253.816L372.797 252.434ZM423.513 193.746L372.763 252.471L374.277 253.779L425.027 195.054L423.513 193.746ZM449.885 161.368L423.495 193.768L425.045 195.032L451.435 162.632L449.885 161.368ZM530.209 193.475L451.039 161.075L450.281 162.925L529.451 195.326L530.209 193.475ZM632.654 90.417L529.124 193.692L530.536 195.108L634.066 91.833L632.654 90.417ZM668.596 126.887L634.086 90.4375L632.634 91.8125L667.144 128.263L668.596 126.887ZM703.086 161.292L668.576 126.867L667.164 128.283L701.674 162.708L703.086 161.292ZM739.583 193.652L703.043 161.252L701.717 162.748L738.257 195.148L739.583 193.652ZM779.525 219.536L739.464 193.561L738.376 195.239L778.437 221.214L779.525 219.536ZM778.843 221.73L779.581 221.175L778.38 219.576L777.641 220.131L778.843 221.73ZM746.996 245.964L778.847 221.726L777.636 220.135L745.785 244.373L746.996 245.964ZM700.75 280.308L746.986 245.971L745.794 244.365L699.558 278.702L700.75 280.308ZM657.548 308.619L700.702 280.341L699.606 278.669L656.452 306.946L657.548 308.619ZM675.441 324.506L657.701 307.069L656.299 308.495L674.039 325.932L675.441 324.506ZM624.885 280.111L674.058 325.951L675.422 324.488L626.249 278.648L624.885 280.111ZM551.278 338.877L626.184 280.167L624.95 278.593L550.044 337.303L551.278 338.877ZM462.12 395.619L551.198 338.933L550.124 337.246L461.046 393.932L462.12 395.619ZM283.922 496.869L462.077 395.645L461.089 393.906L282.934 495.131L283.922 496.869ZM362.067 468.733L283.112 495.051L283.744 496.949L362.7 470.63L362.067 468.733ZM461.205 428.266L362.005 468.756L362.761 470.607L461.961 430.118L461.205 428.266ZM550.23 385.775L461.153 428.289L462.014 430.094L551.092 387.58L550.23 385.775ZM625.023 337.251L550.117 385.839L551.205 387.517L626.111 338.929L625.023 337.251ZM680.738 369.621L626.077 337.229L625.057 338.95L679.718 371.342L680.738 369.621ZM710.967 381.7L680.6 369.553L679.857 371.41L710.224 383.557L710.967 381.7ZM745.241 389.753L710.825 381.655L710.367 383.602L744.783 391.7L745.241 389.753ZM679.079 330.631L744.33 391.458L745.694 389.995L680.443 329.168L679.079 330.631ZM732.492 294.822L679.22 329.058L680.302 330.741L733.574 296.505L732.492 294.822ZM783.829 258.491L732.455 294.847L733.611 296.48L784.984 260.123L783.829 258.491ZM839.321 220.108L783.838 258.484L784.975 260.129L840.459 221.753L839.321 220.108ZM888.575 179.761L839.256 220.157L840.524 221.704L889.842 181.308L888.575 179.761ZM914.502 199.959L889.842 179.761L888.575 181.308L913.235 201.506L914.502 199.959ZM939.161 220.157L914.502 199.959L913.235 201.506L937.894 221.704L939.161 220.157ZM965.845 240.331L939.131 220.133L937.924 221.728L964.639 241.926L965.845 240.331ZM990.494 258.502L965.835 240.324L964.648 241.934L989.308 260.112L990.494 258.502ZM993.3 255.949L989.363 258.464L990.44 260.15L994.376 257.634L993.3 255.949ZM982.453 266.026L994.413 257.61L993.262 255.974L981.302 264.39L982.453 266.026ZM931.926 310.498L982.538 265.959L981.217 264.457L930.605 308.996L931.926 310.498ZM883.298 348.996L931.886 310.531L930.645 308.963L882.057 347.428L883.298 348.996ZM926.913 333.088L882.375 347.259L882.981 349.165L927.52 334.994L926.913 333.088ZM977.457 312.867L926.845 333.112L927.588 334.969L978.2 314.724L977.457 312.867ZM1032.08 288.588L977.423 312.882L978.235 314.71L1032.9 290.416L1032.08 288.588ZM1082.64 262.296L1032.03 288.615L1032.95 290.389L1083.56 264.071L1082.64 262.296ZM1190.92 327.111L1083.62 262.328L1082.59 264.04L1189.88 328.823L1190.92 327.111ZM1296.16 385.804L1190.89 327.094L1189.91 328.841L1295.19 387.551L1296.16 385.804ZM1514.77 495.106L1296.12 385.783L1295.23 387.572L1513.87 496.894L1514.77 495.106ZM1404.46 428.014L1513.79 496.846L1514.85 495.154L1405.53 426.321L1404.46 428.014ZM1381.49 412.702L1404.44 427.999L1405.55 426.335L1382.6 411.038L1381.49 412.702ZM1363.67 290.31L1381.06 412.011L1383.04 411.728L1365.65 290.027L1363.67 290.31ZM1329.54 268.179L1364.11 291.003L1365.21 289.334L1330.64 266.51L1329.54 268.179ZM1346.1 241.271L1329.25 266.794L1330.92 267.896L1347.77 242.373L1346.1 241.271ZM1321 225.9L1346.39 242.656L1347.49 240.987L1322.1 224.231L1321 225.9ZM1305.54 251.139L1322.39 225.616L1320.72 224.514L1303.87 250.038L1305.54 251.139ZM1247.26 213.866L1304.15 251.423L1305.25 249.754L1248.36 212.197L1247.26 213.866ZM1237.21 164.017L1246.83 213.223L1248.79 212.839L1239.17 163.633L1237.21 164.017ZM1083.17 196.48L1238.39 164.805L1237.99 162.845L1082.77 194.52L1083.17 196.48ZM1083.96 195.351V195.333L1081.98 195.667L1081.99 195.685L1083.96 195.351ZM1037.1 227.573L1083.53 196.348L1082.42 194.688L1035.98 225.913L1037.1 227.573ZM1029.83 232.687L1037.11 227.561L1035.96 225.925L1028.68 231.052L1029.83 232.687ZM997.561 211.66L1028.69 232.698L1029.81 231.041L998.681 210.003L997.561 211.66ZM960.525 183.349L997.514 211.626L998.728 210.037L961.739 181.76L960.525 183.349ZM925.597 157.096L960.531 183.354L961.733 181.755L926.799 155.498L925.597 157.096ZM892.641 126.735L925.52 157.032L926.875 155.562L893.996 125.265L892.641 126.735ZM840.562 175.216L893.991 126.741L892.647 125.259L839.218 173.735L840.562 175.216ZM813.779 195.471L840.493 175.273L839.287 173.678L812.573 193.876L813.779 195.471ZM792.947 211.129L813.777 195.473L812.575 193.874L791.745 209.53L792.947 211.129ZM811.37 193.623L791.717 209.552L792.976 211.106L812.63 195.177L811.37 193.623ZM772.787 162.766L811.357 195.166L812.643 193.634L774.073 161.234L772.787 162.766ZM721.974 112.083L772.724 162.708L774.136 161.292L723.386 110.667L721.974 112.083ZM636.626 0.607855L721.886 111.983L723.474 110.767L638.214 -0.607863L636.626 0.607855ZM611.824 35.0334L638.214 0.608391L636.626 -0.608399L610.236 33.8166L611.824 35.0334ZM581.309 67.5098L611.759 35.1098L610.301 33.7402L579.851 66.1402L581.309 67.5098ZM544.746 103.983L581.286 67.533L579.874 66.117L543.334 102.567L544.746 103.983ZM518.218 122.323L544.608 104.098L543.472 102.452L517.082 120.677L518.218 122.323ZM432.054 92.067L517.314 122.442L517.986 120.558L432.726 90.183L432.054 92.067ZM400.752 142.29L433.232 91.665L431.548 90.585L399.068 141.21L400.752 142.29ZM362.11 188.963L400.68 142.388L399.14 141.112L360.57 187.687L362.11 188.963ZM321.507 237.566L362.107 188.966L360.573 187.684L319.973 236.284L321.507 237.566ZM284.886 272.078L321.426 237.653L320.054 236.197L283.514 270.622L284.886 272.078ZM1132.34 236.103L1105.42 213.236L1104.13 214.76L1131.04 237.627L1132.34 236.103ZM1186.95 276.552L1132.29 236.062L1131.09 237.669L1185.76 278.159L1186.95 276.552ZM1243.65 316.454L1186.93 276.537L1185.78 278.173L1242.5 318.09L1243.65 316.454ZM1217.51 193.87L1242.09 317.467L1244.06 317.077L1219.47 193.479L1217.51 193.87ZM1104.95 214.983L1218.66 194.659L1218.31 192.69L1104.6 213.014L1104.95 214.983ZM1193.53 220.469L1179.44 211.165L1178.34 212.835L1192.43 222.138L1193.53 220.469ZM1184.6 235.817L1193.82 221.854L1192.15 220.753L1182.93 234.715L1184.6 235.817ZM1169.12 226.797L1183.22 236.1L1184.32 234.431L1170.22 225.128L1169.12 226.797ZM1178.06 211.449L1168.84 225.411L1170.51 226.513L1179.72 212.551L1178.06 211.449ZM1165.67 232.033L1179.76 241.336L1180.86 239.667L1166.77 230.364L1165.67 232.033ZM1157.83 245.711L1167.05 231.749L1165.38 230.647L1156.17 244.609L1157.83 245.711ZM1171.64 253.629L1157.55 244.326L1156.45 245.995L1170.54 255.298L1171.64 253.629ZM1179.48 239.951L1170.26 253.913L1171.93 255.015L1181.14 241.053L1179.48 239.951ZM1200.24 252.459L1186.15 243.156L1185.04 244.825L1199.14 254.128L1200.24 252.459ZM1191.31 267.807L1200.52 253.845L1198.85 252.743L1189.64 266.705L1191.31 267.807ZM1175.83 258.787L1189.92 268.091L1191.02 266.422L1176.93 257.118L1175.83 258.787ZM1184.76 243.439L1175.54 257.402L1177.21 258.504L1186.43 244.541L1184.76 243.439ZM1197.72 225.627L1211.81 234.93L1212.91 233.261L1198.82 223.958L1197.72 225.627ZM1189.89 239.305L1199.1 225.343L1197.43 224.241L1188.22 238.204L1189.89 239.305ZM1203.7 247.223L1189.6 237.92L1188.5 239.589L1202.59 248.893L1203.7 247.223ZM1211.53 233.545L1202.31 247.507L1203.98 248.609L1213.2 234.647L1211.53 233.545Z" fill="white"/>
</g>
</g>
<path d="M54.7533 619.699V652.436H107.585V682.867H54.7533V718.37H114.506V749.954H15.3027V588.115H114.506V619.699H54.7533ZM179.568 619.699V652.436H232.4V682.867H179.568V718.37H239.321V749.954H140.118V588.115H239.321V619.699H179.568ZM306.921 717.679H376.594V749.954H262.164V719.984L331.375 620.391H262.164V588.115H376.594V618.085L306.921 717.679ZM549.303 666.96C558.685 668.958 566.222 673.646 571.912 681.023C577.602 688.247 580.448 696.547 580.448 705.921C580.448 719.446 575.681 730.205 566.145 738.197C556.763 746.035 543.613 749.954 526.694 749.954H451.254V588.115H524.156C540.614 588.115 553.456 591.881 562.684 599.412C572.065 606.943 576.757 617.163 576.757 630.073C576.757 639.603 574.219 647.518 569.144 653.819C564.221 660.121 557.609 664.501 549.303 666.96ZM490.704 653.589H516.543C523.003 653.589 527.925 652.205 531.308 649.439C534.846 646.519 536.614 642.292 536.614 636.759C536.614 631.226 534.846 627 531.308 624.079C527.925 621.159 523.003 619.699 516.543 619.699H490.704V653.589ZM519.773 718.14C526.386 718.14 531.461 716.679 534.999 713.76C538.691 710.685 540.536 706.305 540.536 700.619C540.536 694.933 538.613 690.475 534.769 687.247C531.077 684.02 525.925 682.406 519.312 682.406H490.704V718.14H519.773ZM642.088 588.115V684.942C642.088 694.625 644.472 702.079 649.24 707.304C654.007 712.529 661.006 715.143 670.234 715.143C679.462 715.143 686.536 712.529 691.459 707.304C696.381 702.079 698.841 694.625 698.841 684.942V588.115H738.292V684.712C738.292 699.158 735.215 711.377 729.064 721.367C722.912 731.358 714.607 738.888 704.148 743.96C693.843 749.032 682.308 751.568 669.542 751.568C656.776 751.568 645.318 749.11 635.167 744.191C625.169 739.119 617.249 731.589 611.404 721.598C605.559 711.454 602.637 699.158 602.637 684.712V588.115H642.088ZM805.445 588.115V749.954H765.994V588.115H805.445ZM873.485 719.523H925.163V749.954H834.034V588.115H873.485V719.523ZM1004.65 588.115C1021.73 588.115 1036.65 591.496 1049.41 598.259C1062.18 605.022 1072.02 614.55 1078.94 626.846C1086.02 638.988 1089.55 653.051 1089.55 669.035C1089.55 684.865 1086.02 698.928 1078.94 711.224C1072.02 723.52 1062.1 733.047 1049.18 739.811C1036.41 746.574 1021.57 749.954 1004.65 749.954H943.98V588.115H1004.65ZM1002.12 715.834C1017.04 715.834 1028.65 711.762 1036.95 703.616C1045.26 695.469 1049.41 683.942 1049.41 669.035C1049.41 654.127 1045.26 642.523 1036.95 634.223C1028.65 625.924 1017.04 621.774 1002.12 621.774H983.43V715.834H1002.12ZM1151.05 588.115V749.954H1111.6V588.115H1151.05ZM1324.52 749.954H1285.07L1219.09 650.13V749.954H1179.64V588.115H1219.09L1285.07 688.4V588.115H1324.52V749.954ZM1460.63 639.295C1457.71 633.916 1453.48 629.843 1447.94 627.076C1442.56 624.156 1436.17 622.696 1428.79 622.696C1416.02 622.696 1405.8 626.923 1398.11 635.376C1390.42 643.675 1386.57 654.818 1386.57 668.804C1386.57 683.712 1390.57 695.394 1398.57 703.846C1406.72 712.146 1417.87 716.295 1432.02 716.295C1441.71 716.295 1449.86 713.837 1456.48 708.918C1463.24 703.999 1468.16 696.93 1471.24 687.709H1421.18V658.66H1507V695.316C1504.08 705.152 1499.08 714.298 1492 722.751C1485.08 731.203 1476.24 738.044 1465.47 743.269C1454.71 748.494 1442.56 751.107 1429.02 751.107C1413.03 751.107 1398.72 747.649 1386.11 740.733C1373.65 733.663 1363.89 723.903 1356.81 711.454C1349.89 699.005 1346.43 684.789 1346.43 668.804C1346.43 652.82 1349.89 638.603 1356.81 626.154C1363.89 613.552 1373.65 603.792 1386.11 596.876C1398.57 589.806 1412.8 586.271 1428.79 586.271C1448.17 586.271 1464.47 590.959 1477.7 600.334C1491.08 609.709 1499.93 622.696 1504.23 639.295H1460.63Z" fill="white"/>
<path d="M477.65 968.694C472.266 968.694 467.422 967.772 463.116 965.927C458.81 964.005 455.425 961.316 452.965 957.858C450.504 954.4 449.273 950.366 449.273 945.755H463.346C463.655 949.213 464.999 952.057 467.384 954.285C469.844 956.513 473.267 957.628 477.65 957.628C482.187 957.628 485.725 956.553 488.263 954.4C490.8 952.172 492.069 949.328 492.069 945.87C492.069 943.181 491.262 940.991 489.647 939.3C488.109 937.609 486.148 936.303 483.764 935.381C481.457 934.458 478.227 933.459 474.074 932.384C468.845 931 464.577 929.617 461.27 928.234C458.04 926.773 455.272 924.545 452.965 921.548C450.658 918.551 449.504 914.555 449.504 909.56C449.504 904.949 450.658 900.915 452.965 897.457C455.272 893.999 458.502 891.347 462.654 889.503C466.807 887.659 471.614 886.737 477.073 886.737C484.84 886.737 491.184 888.696 496.107 892.615C501.105 896.457 503.873 901.76 504.412 908.523H489.877C489.647 905.603 488.263 903.105 485.725 901.03C483.187 898.955 479.842 897.918 475.689 897.918C471.92 897.918 468.845 898.878 466.461 900.8C464.076 902.721 462.885 905.488 462.885 909.099C462.885 911.558 463.615 913.595 465.077 915.208C466.614 916.745 468.537 917.975 470.844 918.897C473.151 919.819 476.304 920.819 480.303 921.894C485.609 923.355 489.915 924.814 493.223 926.274C496.606 927.735 499.452 930.001 501.759 933.075C504.143 936.072 505.335 940.107 505.335 945.179C505.335 949.251 504.219 953.094 501.989 956.706C499.836 960.317 496.645 963.238 492.415 965.466C488.263 967.618 483.34 968.694 477.65 968.694ZM557.418 968.694C549.958 968.694 543.077 966.965 536.77 963.507C530.541 959.971 525.581 955.092 521.89 948.867C518.276 942.565 516.468 935.496 516.468 927.658C516.468 919.819 518.276 912.788 521.89 906.563C525.581 900.339 530.541 895.497 536.77 892.039C543.077 888.504 549.958 886.737 557.418 886.737C564.954 886.737 571.837 888.504 578.066 892.039C584.373 895.497 589.333 900.339 592.947 906.563C596.56 912.788 598.368 919.819 598.368 927.658C598.368 935.496 596.56 942.565 592.947 948.867C589.333 955.092 584.373 959.971 578.066 963.507C571.837 966.965 564.954 968.694 557.418 968.694ZM557.418 957.282C562.724 957.282 567.454 956.091 571.606 953.709C575.759 951.25 578.989 947.792 581.296 943.334C583.681 938.801 584.872 933.574 584.872 927.658C584.872 921.741 583.681 916.554 581.296 912.096C578.989 907.638 575.759 904.22 571.606 901.837C567.454 899.454 562.724 898.264 557.418 898.264C552.112 898.264 547.382 899.454 543.23 901.837C539.077 904.22 535.809 907.638 533.425 912.096C531.118 916.554 529.964 921.741 529.964 927.658C529.964 933.574 531.118 938.801 533.425 943.334C535.809 947.792 539.077 951.25 543.23 953.709C547.382 956.091 552.112 957.282 557.418 957.282ZM624.459 957.282H651.567V967.887H611.309V887.774H624.459V957.282ZM675.598 887.774V938.839C675.598 944.91 677.176 949.481 680.328 952.556C683.558 955.63 688.019 957.167 693.709 957.167C699.476 957.167 703.937 955.63 707.09 952.556C710.319 949.481 711.934 944.91 711.934 938.839V887.774H725.085V938.608C725.085 945.141 723.663 950.674 720.817 955.207C717.971 959.74 714.164 963.123 709.397 965.351C704.629 967.579 699.361 968.694 693.593 968.694C687.826 968.694 682.557 967.579 677.79 965.351C673.098 963.123 669.369 959.74 666.601 955.207C663.832 950.674 662.448 945.141 662.448 938.608V887.774H675.598ZM794 887.774V898.494H772.66V967.887H759.51V898.494H738.055V887.774H794ZM820.468 887.774V967.887H807.318V887.774H820.468ZM874.3 968.694C866.84 968.694 859.957 966.965 853.652 963.507C847.423 959.971 842.463 955.092 838.772 948.867C835.156 942.565 833.35 935.496 833.35 927.658C833.35 919.819 835.156 912.788 838.772 906.563C842.463 900.339 847.423 895.497 853.652 892.039C859.957 888.504 866.84 886.737 874.3 886.737C881.836 886.737 888.719 888.504 894.948 892.039C901.253 895.497 906.213 900.339 909.829 906.563C913.442 912.788 915.25 919.819 915.25 927.658C915.25 935.496 913.442 942.565 909.829 948.867C906.213 955.092 901.253 959.971 894.948 963.507C888.719 966.965 881.836 968.694 874.3 968.694ZM874.3 957.282C879.606 957.282 884.336 956.091 888.488 953.709C892.641 951.25 895.871 947.792 898.178 943.334C900.561 938.801 901.754 933.574 901.754 927.658C901.754 921.741 900.561 916.554 898.178 912.096C895.871 907.638 892.641 904.22 888.488 901.837C884.336 899.454 879.606 898.264 874.3 898.264C868.994 898.264 864.264 899.454 860.112 901.837C855.959 904.22 852.69 907.638 850.307 912.096C848 916.554 846.846 921.741 846.846 927.658C846.846 933.574 848 938.801 850.307 943.334C852.69 947.792 855.959 951.25 860.112 953.709C864.264 956.091 868.994 957.282 874.3 957.282ZM994.056 967.887H980.905L941.34 908.062V967.887H928.189V887.659H941.34L980.905 947.369V887.659H994.056V967.887ZM1037.74 968.694C1032.36 968.694 1027.51 967.772 1023.21 965.927C1018.9 964.005 1015.51 961.316 1013.05 957.858C1010.59 954.4 1009.36 950.366 1009.36 945.755H1023.44C1023.74 949.213 1025.09 952.057 1027.47 954.285C1029.93 956.513 1033.36 957.628 1037.74 957.628C1042.28 957.628 1045.81 956.553 1048.35 954.4C1050.89 952.172 1052.16 949.328 1052.16 945.87C1052.16 943.181 1051.35 940.991 1049.74 939.3C1048.2 937.609 1046.24 936.303 1043.85 935.381C1041.55 934.458 1038.32 933.459 1034.16 932.384C1028.94 931 1024.67 929.617 1021.36 928.234C1018.13 926.773 1015.36 924.545 1013.05 921.548C1010.75 918.551 1009.59 914.555 1009.59 909.56C1009.59 904.949 1010.75 900.915 1013.05 897.457C1015.36 893.999 1018.59 891.347 1022.74 889.503C1026.9 887.659 1031.7 886.737 1037.16 886.737C1044.93 886.737 1051.27 888.696 1056.2 892.615C1061.19 896.457 1063.96 901.76 1064.5 908.523H1049.97C1049.74 905.603 1048.35 903.105 1045.81 901.03C1043.28 898.955 1039.93 897.918 1035.78 897.918C1032.01 897.918 1028.94 898.878 1026.55 900.8C1024.17 902.721 1022.97 905.488 1022.97 909.099C1022.97 911.558 1023.7 913.595 1025.17 915.208C1026.7 916.745 1028.63 917.975 1030.93 918.897C1033.24 919.819 1036.39 920.819 1040.39 921.894C1045.7 923.355 1050.01 924.814 1053.31 926.274C1056.7 927.735 1059.54 930.001 1061.85 933.075C1064.23 936.072 1065.42 940.107 1065.42 945.179C1065.42 949.251 1064.31 953.094 1062.08 956.706C1059.93 960.317 1056.74 963.238 1052.51 965.466C1048.35 967.618 1043.43 968.694 1037.74 968.694Z" fill="white"/>
<path d="M240.717 924.661H384.907" stroke="white" stroke-width="4"/>
<path d="M1131.09 924.661H1275.28" stroke="white" stroke-width="4"/>
<defs>
<clipPath id="clip0_202_2">
<rect width="1515" height="496" fill="white"/>
</clipPath>
</defs>
</svg>
