<svg width="2088" height="2088" viewBox="0 0 2088 2088" fill="none" xmlns="http://www.w3.org/2000/svg">
<g clip-path="url(#clip0_110_3)">
<rect width="2088" height="2088" rx="1044" fill="#F2994A"/>
<circle cx="1044" cy="1044" r="880" fill="#FFA656"/>
<circle cx="1043.5" cy="1043.5" r="740.5" fill="#FFB06A"/>
<circle cx="1044" cy="1044" r="589" fill="#FFBD83"/>
<rect x="41" y="1112" width="2094" height="1007" fill="#21331C"/>
<path d="M372.305 1406.04V1437.28H422.729V1466.32H372.305V1500.2H429.334V1530.34H334.652V1375.9H429.334V1406.04H372.305ZM491.431 1406.04V1437.28H541.855V1466.32H491.431V1500.2H548.461V1530.34H453.779V1375.9H548.461V1406.04H491.431ZM612.98 1499.54H679.478V1530.34H570.263V1501.74L636.32 1406.7H570.263V1375.9H679.478V1404.5L612.98 1499.54ZM844.316 1451.14C853.27 1453.05 860.464 1457.52 865.895 1464.56C871.325 1471.46 874.042 1479.38 874.042 1488.32C874.042 1501.23 869.492 1511.5 860.39 1519.12C851.436 1526.6 838.885 1530.34 822.737 1530.34H750.735V1375.9H820.315C836.023 1375.9 848.279 1379.5 857.087 1386.68C866.041 1393.87 870.519 1403.62 870.519 1415.94C870.519 1425.04 868.096 1432.59 863.252 1438.6C858.554 1444.62 852.243 1448.8 844.316 1451.14ZM788.388 1438.38H813.049C819.214 1438.38 823.912 1437.06 827.141 1434.42C830.518 1431.64 832.205 1427.6 832.205 1422.32C832.205 1417.04 830.518 1413.01 827.141 1410.22C823.912 1407.44 819.214 1406.04 813.049 1406.04H788.388V1438.38ZM816.132 1499.98C822.443 1499.98 827.287 1498.59 830.664 1495.8C834.187 1492.87 835.949 1488.69 835.949 1483.26C835.949 1477.84 834.113 1473.58 830.444 1470.5C826.921 1467.42 822.003 1465.88 815.691 1465.88H788.388V1499.98H816.132ZM932.872 1375.9V1468.3C932.872 1477.54 935.148 1484.66 939.698 1489.64C944.248 1494.63 950.928 1497.12 959.735 1497.12C968.543 1497.12 975.295 1494.63 979.993 1489.64C984.691 1484.66 987.039 1477.54 987.039 1468.3V1375.9H1024.69V1468.08C1024.69 1481.87 1021.76 1493.53 1015.88 1503.06C1010.01 1512.6 1002.09 1519.78 992.103 1524.62C982.269 1529.46 971.259 1531.88 959.075 1531.88C946.89 1531.88 935.955 1529.54 926.266 1524.84C916.724 1520 909.165 1512.82 903.587 1503.28C898.008 1493.6 895.219 1481.87 895.219 1468.08V1375.9H932.872ZM1088.78 1375.9V1530.34H1051.13V1375.9H1088.78ZM1153.72 1501.3H1203.05V1530.34H1116.07V1375.9H1153.72V1501.3ZM1278.92 1375.9C1295.21 1375.9 1309.45 1379.13 1321.63 1385.58C1333.82 1392.04 1343.21 1401.13 1349.82 1412.86C1356.57 1424.45 1359.95 1437.87 1359.95 1453.12C1359.95 1468.23 1356.57 1481.65 1349.82 1493.38C1343.21 1505.12 1333.74 1514.21 1321.41 1520.66C1309.23 1527.12 1295.06 1530.34 1278.92 1530.34H1221.01V1375.9H1278.92ZM1276.49 1497.78C1290.73 1497.78 1301.82 1493.9 1309.74 1486.12C1317.67 1478.35 1321.63 1467.35 1321.63 1453.12C1321.63 1438.9 1317.67 1427.82 1309.74 1419.9C1301.82 1411.98 1290.73 1408.02 1276.49 1408.02H1258.66V1497.78H1276.49ZM1418.64 1375.9V1530.34H1380.99V1375.9H1418.64ZM1584.21 1530.34H1546.55L1483.58 1435.08V1530.34H1445.93V1375.9H1483.58L1546.55 1471.6V1375.9H1584.21V1530.34ZM1714.11 1424.74C1711.32 1419.61 1707.28 1415.72 1702 1413.08C1696.86 1410.3 1690.77 1408.9 1683.72 1408.9C1671.54 1408.9 1661.78 1412.94 1654.44 1421C1647.1 1428.92 1643.43 1439.56 1643.43 1452.9C1643.43 1467.13 1647.24 1478.28 1654.88 1486.34C1662.66 1494.26 1673.3 1498.22 1686.8 1498.22C1696.05 1498.22 1703.83 1495.88 1710.14 1491.18C1716.6 1486.49 1721.3 1479.74 1724.24 1470.94H1676.46V1443.22H1758.37V1478.2C1755.58 1487.59 1750.81 1496.32 1744.05 1504.38C1737.45 1512.45 1729.01 1518.98 1718.73 1523.96C1708.46 1528.95 1696.86 1531.44 1683.94 1531.44C1668.67 1531.44 1655.02 1528.14 1642.99 1521.54C1631.1 1514.8 1621.77 1505.48 1615.02 1493.6C1608.42 1481.72 1605.11 1468.16 1605.11 1452.9C1605.11 1437.65 1608.42 1424.08 1615.02 1412.2C1621.77 1400.18 1631.1 1390.86 1642.99 1384.26C1654.88 1377.52 1668.45 1374.14 1683.72 1374.14C1702.22 1374.14 1717.78 1378.62 1730.4 1387.56C1743.17 1396.51 1751.61 1408.9 1755.72 1424.74H1714.11Z" fill="#F5F5F5"/>
<path d="M775.927 1739.08C770.789 1739.08 766.165 1738.2 762.055 1736.44C757.946 1734.61 754.715 1732.04 752.367 1728.74C750.019 1725.44 748.844 1721.59 748.844 1717.19H762.275C762.57 1720.49 763.853 1723.21 766.129 1725.33C768.477 1727.46 771.744 1728.52 775.927 1728.52C780.257 1728.52 783.634 1727.5 786.056 1725.44C788.478 1723.32 789.689 1720.6 789.689 1717.3C789.689 1714.74 788.918 1712.65 787.377 1711.03C785.91 1709.42 784.038 1708.17 781.762 1707.29C779.56 1706.41 776.478 1705.46 772.514 1704.43C767.524 1703.11 763.45 1701.79 760.294 1700.47C757.211 1699.08 754.569 1696.95 752.367 1694.09C750.165 1691.23 749.064 1687.42 749.064 1682.65C749.064 1678.25 750.165 1674.4 752.367 1671.1C754.569 1667.8 757.651 1665.27 761.615 1663.51C765.578 1661.75 770.166 1660.87 775.377 1660.87C782.789 1660.87 788.844 1662.74 793.542 1666.48C798.313 1670.15 800.955 1675.21 801.469 1681.66H787.597C787.377 1678.88 786.056 1676.49 783.634 1674.51C781.212 1672.53 778.019 1671.54 774.056 1671.54C770.459 1671.54 767.524 1672.46 765.248 1674.29C762.972 1676.13 761.835 1678.77 761.835 1682.21C761.835 1684.56 762.532 1686.5 763.927 1688.04C765.394 1689.51 767.23 1690.68 769.432 1691.56C771.633 1692.44 774.642 1693.4 778.459 1694.42C783.524 1695.82 787.633 1697.21 790.79 1698.6C794.019 1700 796.735 1702.16 798.937 1705.09C801.213 1707.95 802.35 1711.8 802.35 1716.64C802.35 1720.53 801.285 1724.2 799.157 1727.64C797.102 1731.09 794.057 1733.88 790.019 1736C786.056 1738.06 781.358 1739.08 775.927 1739.08ZM852.06 1739.08C844.94 1739.08 838.372 1737.43 832.353 1734.13C826.408 1730.76 821.673 1726.1 818.15 1720.16C814.701 1714.15 812.976 1707.4 812.976 1699.92C812.976 1692.44 814.701 1685.73 818.15 1679.79C821.673 1673.85 826.408 1669.23 832.353 1665.93C838.372 1662.56 844.94 1660.87 852.06 1660.87C859.252 1660.87 865.822 1662.56 871.767 1665.93C877.786 1669.23 882.52 1673.85 885.969 1679.79C889.418 1685.73 891.144 1692.44 891.144 1699.92C891.144 1707.4 889.418 1714.15 885.969 1720.16C882.52 1726.1 877.786 1730.76 871.767 1734.13C865.822 1737.43 859.252 1739.08 852.06 1739.08ZM852.06 1728.19C857.124 1728.19 861.638 1727.06 865.601 1724.78C869.565 1722.44 872.648 1719.14 874.849 1714.88C877.125 1710.56 878.262 1705.57 878.262 1699.92C878.262 1694.28 877.125 1689.33 874.849 1685.07C872.648 1680.82 869.565 1677.56 865.601 1675.28C861.638 1673.01 857.124 1671.87 852.06 1671.87C846.995 1671.87 842.481 1673.01 838.518 1675.28C834.555 1677.56 831.436 1680.82 829.16 1685.07C826.958 1689.33 825.857 1694.28 825.857 1699.92C825.857 1705.57 826.958 1710.56 829.16 1714.88C831.436 1719.14 834.555 1722.44 838.518 1724.78C842.481 1727.06 846.995 1728.19 852.06 1728.19ZM916.046 1728.19H941.918V1738.31H903.495V1661.86H916.046V1728.19ZM964.854 1661.86V1710.59C964.854 1716.39 966.359 1720.75 969.368 1723.68C972.451 1726.62 976.708 1728.08 982.139 1728.08C987.644 1728.08 991.901 1726.62 994.91 1723.68C997.993 1720.75 999.534 1716.39 999.534 1710.59V1661.86H1012.08V1710.37C1012.08 1716.61 1010.73 1721.89 1008.01 1726.21C1005.3 1730.54 1001.66 1733.77 997.112 1735.89C992.562 1738.02 987.534 1739.08 982.029 1739.08C976.524 1739.08 971.496 1738.02 966.946 1735.89C962.468 1733.77 958.909 1730.54 956.267 1726.21C953.624 1721.89 952.303 1716.61 952.303 1710.37V1661.86H964.854ZM1077.86 1661.86V1672.09H1057.49V1738.31H1044.94V1672.09H1024.46V1661.86H1077.86ZM1103.12 1661.86V1738.31H1090.57V1661.86H1103.12ZM1154.5 1739.08C1147.38 1739.08 1140.81 1737.43 1134.79 1734.13C1128.85 1730.76 1124.11 1726.1 1120.59 1720.16C1117.14 1714.15 1115.42 1707.4 1115.42 1699.92C1115.42 1692.44 1117.14 1685.73 1120.59 1679.79C1124.11 1673.85 1128.85 1669.23 1134.79 1665.93C1140.81 1662.56 1147.38 1660.87 1154.5 1660.87C1161.69 1660.87 1168.26 1662.56 1174.21 1665.93C1180.22 1669.23 1184.96 1673.85 1188.41 1679.79C1191.86 1685.73 1193.58 1692.44 1193.58 1699.92C1193.58 1707.4 1191.86 1714.15 1188.41 1720.16C1184.96 1726.1 1180.22 1730.76 1174.21 1734.13C1168.26 1737.43 1161.69 1739.08 1154.5 1739.08ZM1154.5 1728.19C1159.56 1728.19 1164.08 1727.06 1168.04 1724.78C1172.01 1722.44 1175.09 1719.14 1177.29 1714.88C1179.56 1710.56 1180.7 1705.57 1180.7 1699.92C1180.7 1694.28 1179.56 1689.33 1177.29 1685.07C1175.09 1680.82 1172.01 1677.56 1168.04 1675.28C1164.08 1673.01 1159.56 1671.87 1154.5 1671.87C1149.44 1671.87 1144.92 1673.01 1140.96 1675.28C1136.99 1677.56 1133.87 1680.82 1131.6 1685.07C1129.4 1689.33 1128.3 1694.28 1128.3 1699.92C1128.3 1705.57 1129.4 1710.56 1131.6 1714.88C1133.87 1719.14 1136.99 1722.44 1140.96 1724.78C1144.92 1727.06 1149.44 1728.19 1154.5 1728.19ZM1268.8 1738.31H1256.25L1218.48 1681.22V1738.31H1205.93V1661.75H1218.48L1256.25 1718.73V1661.75H1268.8V1738.31ZM1310.49 1739.08C1305.35 1739.08 1300.73 1738.2 1296.62 1736.44C1292.51 1734.61 1289.28 1732.04 1286.93 1728.74C1284.58 1725.44 1283.41 1721.59 1283.41 1717.19H1296.84C1297.13 1720.49 1298.42 1723.21 1300.69 1725.33C1303.04 1727.46 1306.31 1728.52 1310.49 1728.52C1314.82 1728.52 1318.2 1727.5 1320.62 1725.44C1323.04 1723.32 1324.25 1720.6 1324.25 1717.3C1324.25 1714.74 1323.48 1712.65 1321.94 1711.03C1320.47 1709.42 1318.6 1708.17 1316.33 1707.29C1314.12 1706.41 1311.04 1705.46 1307.08 1704.43C1302.09 1703.11 1298.01 1701.79 1294.86 1700.47C1291.77 1699.08 1289.13 1696.95 1286.93 1694.09C1284.73 1691.23 1283.63 1687.42 1283.63 1682.65C1283.63 1678.25 1284.73 1674.4 1286.93 1671.1C1289.13 1667.8 1292.22 1665.27 1296.18 1663.51C1300.14 1661.75 1304.73 1660.87 1309.94 1660.87C1317.35 1660.87 1323.41 1662.74 1328.11 1666.48C1332.88 1670.15 1335.52 1675.21 1336.03 1681.66H1322.16C1321.94 1678.88 1320.62 1676.49 1318.2 1674.51C1315.78 1672.53 1312.58 1671.54 1308.62 1671.54C1305.02 1671.54 1302.09 1672.46 1299.81 1674.29C1297.54 1676.13 1296.4 1678.77 1296.4 1682.21C1296.4 1684.56 1297.1 1686.5 1298.49 1688.04C1299.96 1689.51 1301.79 1690.68 1304 1691.56C1306.2 1692.44 1309.21 1693.4 1313.02 1694.42C1318.09 1695.82 1322.2 1697.21 1325.35 1698.6C1328.58 1700 1331.3 1702.16 1333.5 1705.09C1335.78 1707.95 1336.91 1711.8 1336.91 1716.64C1336.91 1720.53 1335.85 1724.2 1333.72 1727.64C1331.67 1731.09 1328.62 1733.88 1324.58 1736C1320.62 1738.06 1315.92 1739.08 1310.49 1739.08Z" fill="#F5F5F5"/>
<path d="M549.791 1697.06H687.41" stroke="#F5F5F5" stroke-width="4"/>
<path d="M1399.59 1697.06H1537.21" stroke="#F5F5F5" stroke-width="4"/>
<path fill-rule="evenodd" clip-rule="evenodd" d="M361.892 731.714L274.247 651.967L204.646 765.156L160.823 821.751L114.423 878.346L62.8671 937.513L1 1004.4L140.201 901.498L209.802 842.331L274.247 775.446L367.047 816.606L421.181 765.156L475.315 708.561L539.76 633.959L573.271 592.799L673.805 633.959L805.273 502.762L849.095 549.067L892.918 592.799L939.318 633.959L990.068 667.048L989.251 667.663L948.804 698.453L899.42 734.445L834.022 780.813L790.212 809.397L729.26 847.508L766.72 838.615L811.8 825.911L860.054 804.315L931.843 762.6L997.08 716.415L1067.54 667.663L1130.16 616.345L1161.48 642.004L1192.79 667.663L1226.71 693.322L1258 717.324L1147.53 811.303L1114.84 780.813L1019.72 855.397L906.601 927.409L680.37 1056L780.631 1022.57L906.601 971.129L1019.72 917.121L1114.84 855.397L1184.25 896.546L1222.81 911.977L1266.51 922.265L1180.96 842.485L1392.36 671.294L1586.38 856.328L1891.92 864.063L1930.27 896.26L1968.82 922.857L2001.41 943.383L2088 999.316L2014.98 933.892L1952.76 871.009L1943.48 861.708L1773.52 680.942L1683.37 678.659L1684.87 618.994L1618.69 617.319L1617.18 676.984L1468.82 673.229L1394.13 601.515L1303.56 678.559L1268.46 654.834L1221.49 618.91L1177.13 585.554L1135.38 547.066L1067.54 608.647L1033.75 634.206L983.141 592.799L918.696 528.487L810.428 387L776.917 430.732L738.25 471.892L691.85 518.197L658.338 541.349L550.071 502.762L508.826 567.074L459.848 626.242L408.292 687.981L361.892 731.714ZM1338.15 779.543H1380.71V821.712H1338.15V779.543ZM1380.71 837.525H1338.15V879.694H1380.71V837.525ZM1396.66 837.525H1439.21V879.694H1396.66V837.525ZM1439.21 779.543H1396.66V821.712H1439.21V779.543Z" fill="#21331C"/>
</g>
<rect x="40" y="40" width="2008" height="2008" rx="1004" stroke="#21331C" stroke-width="80"/>
<defs>
<clipPath id="clip0_110_3">
<rect width="2088" height="2088" rx="1044" fill="white"/>
</clipPath>
</defs>
</svg>
