<svg width="2150" height="2150" viewBox="0 0 2150 2150" fill="none" xmlns="http://www.w3.org/2000/svg">
<g clip-path="url(#clip0_110_26)">
<path fill-rule="evenodd" clip-rule="evenodd" d="M72 1143H2166V2150H72V1143ZM403.304 1437.04V1468.28H453.728V1497.32H403.304V1531.2H460.334V1561.34H365.652V1406.9H460.334V1437.04H403.304ZM522.431 1437.04V1468.28H572.854V1497.32H522.431V1531.2H579.46V1561.34H484.778V1406.9H579.46V1437.04H522.431ZM643.979 1530.54H710.477V1561.34H601.263V1532.74L667.32 1437.7H601.263V1406.9H710.477V1435.5L643.979 1530.54ZM875.315 1482.14C884.269 1484.05 891.463 1488.52 896.894 1495.56C902.325 1502.46 905.041 1510.38 905.041 1519.32C905.041 1532.23 900.491 1542.5 891.389 1550.12C882.435 1557.6 869.885 1561.34 853.737 1561.34H781.734V1406.9H851.315C867.022 1406.9 879.279 1410.5 888.086 1417.68C897.04 1424.87 901.518 1434.62 901.518 1446.94C901.518 1456.04 899.096 1463.59 894.252 1469.6C889.554 1475.62 883.242 1479.8 875.315 1482.14ZM819.387 1469.38H844.048C850.214 1469.38 854.912 1468.06 858.14 1465.42C861.517 1462.64 863.205 1458.6 863.205 1453.32C863.205 1448.04 861.517 1444.01 858.14 1441.22C854.912 1438.44 850.214 1437.04 844.048 1437.04H819.387V1469.38ZM847.131 1530.98C853.443 1530.98 858.287 1529.59 861.664 1526.8C865.187 1523.87 866.948 1519.69 866.948 1514.26C866.948 1508.84 865.113 1504.58 861.443 1501.5C857.92 1498.42 853.002 1496.88 846.691 1496.88H819.387V1530.98H847.131ZM963.871 1406.9V1499.3C963.871 1508.54 966.147 1515.66 970.697 1520.64C975.247 1525.63 981.927 1528.12 990.735 1528.12C999.542 1528.12 1006.29 1525.63 1010.99 1520.64C1015.69 1515.66 1018.04 1508.54 1018.04 1499.3V1406.9H1055.69V1499.08C1055.69 1512.87 1052.75 1524.53 1046.88 1534.06C1041.01 1543.6 1033.09 1550.78 1023.1 1555.62C1013.27 1560.46 1002.26 1562.88 990.074 1562.88C977.89 1562.88 966.954 1560.54 957.266 1555.84C947.724 1551 940.165 1543.82 934.586 1534.28C929.007 1524.6 926.219 1512.87 926.219 1499.08V1406.9H963.871ZM1119.78 1406.9V1561.34H1082.13V1406.9H1119.78ZM1184.72 1532.3H1234.05V1561.34H1147.07V1406.9H1184.72V1532.3ZM1309.91 1406.9C1326.21 1406.9 1340.45 1410.13 1352.63 1416.58C1364.82 1423.04 1374.21 1432.13 1380.82 1443.86C1387.57 1455.45 1390.94 1468.87 1390.94 1484.12C1390.94 1499.23 1387.57 1512.65 1380.82 1524.38C1374.21 1536.12 1364.74 1545.21 1352.41 1551.66C1340.23 1558.12 1326.06 1561.34 1309.91 1561.34H1252V1406.9H1309.91ZM1307.49 1528.78C1321.73 1528.78 1332.81 1524.9 1340.74 1517.12C1348.67 1509.35 1352.63 1498.35 1352.63 1484.12C1352.63 1469.9 1348.67 1458.82 1340.74 1450.9C1332.81 1442.98 1321.73 1439.02 1307.49 1439.02H1289.66V1528.78H1307.49ZM1449.64 1561.34H1411.99V1406.9H1449.64V1561.34ZM1615.21 1561.34H1577.55L1514.58 1466.08V1561.34H1476.93V1406.9H1514.58L1577.55 1502.6V1406.9H1615.21V1561.34ZM1745.11 1455.74C1742.32 1450.61 1738.28 1446.72 1733 1444.08C1727.86 1441.3 1721.77 1439.9 1714.72 1439.9C1702.54 1439.9 1692.78 1443.94 1685.44 1452C1678.1 1459.92 1674.43 1470.56 1674.43 1483.9C1674.43 1498.13 1678.24 1509.28 1685.88 1517.34C1693.66 1525.26 1704.3 1529.22 1717.8 1529.22C1727.05 1529.22 1734.83 1526.88 1741.14 1522.18C1747.6 1517.49 1752.3 1510.74 1755.24 1501.94H1707.45V1474.22H1789.37V1509.2C1786.58 1518.59 1781.81 1527.32 1775.05 1535.38C1768.45 1543.45 1760.01 1549.98 1749.73 1554.96C1739.46 1559.95 1727.86 1562.44 1714.94 1562.44C1699.67 1562.44 1686.02 1559.14 1673.99 1552.54C1662.1 1545.8 1652.77 1536.48 1646.02 1524.6C1639.42 1512.72 1636.11 1499.16 1636.11 1483.9C1636.11 1468.65 1639.42 1455.08 1646.02 1443.2C1652.77 1431.18 1662.1 1421.86 1673.99 1415.26C1685.88 1408.52 1699.45 1405.14 1714.72 1405.14C1733.22 1405.14 1748.78 1409.62 1761.4 1418.56C1774.17 1427.51 1782.61 1439.9 1786.72 1455.74H1745.11ZM793.055 1767.44C797.165 1769.2 801.789 1770.08 806.927 1770.08C812.358 1770.08 817.056 1769.06 821.02 1767C825.057 1764.88 828.102 1762.09 830.157 1758.64C832.285 1755.2 833.35 1751.53 833.35 1747.64C833.35 1742.8 832.213 1738.95 829.937 1736.09C827.735 1733.16 825.019 1731 821.79 1729.6C818.634 1728.21 814.524 1726.82 809.459 1725.42C805.642 1724.4 802.634 1723.44 800.432 1722.56C798.23 1721.68 796.394 1720.51 794.927 1719.04C793.532 1717.5 792.835 1715.56 792.835 1713.21C792.835 1709.77 793.972 1707.13 796.248 1705.29C798.524 1703.46 801.459 1702.54 805.056 1702.54C809.019 1702.54 812.212 1703.53 814.634 1705.51C817.056 1707.49 818.377 1709.88 818.597 1712.66H832.469C831.955 1706.21 829.313 1701.15 824.543 1697.48C819.845 1693.74 813.789 1691.87 806.377 1691.87C801.166 1691.87 796.578 1692.75 792.615 1694.51C788.651 1696.27 785.569 1698.8 783.367 1702.1C781.165 1705.4 780.064 1709.25 780.064 1713.65C780.064 1718.42 781.165 1722.23 783.367 1725.09C785.569 1727.95 788.211 1730.08 791.294 1731.47C794.45 1732.79 798.524 1734.11 803.514 1735.43C807.478 1736.46 810.56 1737.41 812.762 1738.29C815.038 1739.17 816.91 1740.42 818.377 1742.03C819.919 1743.65 820.689 1745.74 820.689 1748.3C820.689 1751.6 819.478 1754.32 817.056 1756.44C814.634 1758.5 811.257 1759.52 806.927 1759.52C802.744 1759.52 799.477 1758.46 797.129 1756.33C794.853 1754.21 793.57 1751.49 793.275 1748.19H779.844C779.844 1752.59 781.019 1756.44 783.367 1759.74C785.715 1763.04 788.946 1765.61 793.055 1767.44ZM863.353 1765.13C869.372 1768.43 875.94 1770.08 883.06 1770.08C890.252 1770.08 896.822 1768.43 902.767 1765.13C908.786 1761.76 913.52 1757.1 916.969 1751.16C920.418 1745.15 922.144 1738.4 922.144 1730.92C922.144 1723.44 920.418 1716.73 916.969 1710.79C913.52 1704.85 908.786 1700.23 902.767 1696.93C896.822 1693.56 890.252 1691.87 883.06 1691.87C875.94 1691.87 869.372 1693.56 863.353 1696.93C857.408 1700.23 852.674 1704.85 849.151 1710.79C845.701 1716.73 843.976 1723.44 843.976 1730.92C843.976 1738.4 845.701 1745.15 849.151 1751.16C852.674 1757.1 857.408 1761.76 863.353 1765.13ZM896.602 1755.78C892.638 1758.06 888.124 1759.19 883.06 1759.19C877.996 1759.19 873.482 1758.06 869.518 1755.78C865.555 1753.44 862.436 1750.14 860.16 1745.88C857.958 1741.56 856.857 1736.57 856.857 1730.92C856.857 1725.28 857.958 1720.33 860.16 1716.07C862.436 1711.82 865.555 1708.56 869.518 1706.28C873.482 1704.01 877.996 1702.87 883.06 1702.87C888.124 1702.87 892.638 1704.01 896.602 1706.28C900.565 1708.56 903.648 1711.82 905.85 1716.07C908.125 1720.33 909.263 1725.28 909.263 1730.92C909.263 1736.57 908.125 1741.56 905.85 1745.88C903.648 1750.14 900.565 1753.44 896.602 1755.78ZM972.918 1759.19H947.046V1692.86H934.495V1769.31H972.918V1759.19ZM995.854 1741.59V1692.86H983.303V1741.37C983.303 1747.61 984.624 1752.89 987.267 1757.21C989.909 1761.54 993.468 1764.77 997.946 1766.89C1002.5 1769.02 1007.52 1770.08 1013.03 1770.08C1018.53 1770.08 1023.56 1769.02 1028.11 1766.89C1032.66 1764.77 1036.3 1761.54 1039.01 1757.21C1041.73 1752.89 1043.09 1747.61 1043.09 1741.37V1692.86H1030.53V1741.59C1030.53 1747.39 1028.99 1751.75 1025.91 1754.68C1022.9 1757.62 1018.64 1759.08 1013.14 1759.08C1007.71 1759.08 1003.45 1757.62 1000.37 1754.68C997.359 1751.75 995.854 1747.39 995.854 1741.59ZM1108.86 1703.09V1692.86H1055.46V1703.09H1075.94V1769.31H1088.49V1703.09H1108.86ZM1134.12 1769.31V1692.86H1121.57V1769.31H1134.12ZM1165.79 1765.13C1171.81 1768.43 1178.38 1770.08 1185.5 1770.08C1192.69 1770.08 1199.26 1768.43 1205.21 1765.13C1211.22 1761.76 1215.96 1757.1 1219.41 1751.16C1222.86 1745.15 1224.58 1738.4 1224.58 1730.92C1224.58 1723.44 1222.86 1716.73 1219.41 1710.79C1215.96 1704.85 1211.22 1700.23 1205.21 1696.93C1199.26 1693.56 1192.69 1691.87 1185.5 1691.87C1178.38 1691.87 1171.81 1693.56 1165.79 1696.93C1159.85 1700.23 1155.11 1704.85 1151.59 1710.79C1148.14 1716.73 1146.42 1723.44 1146.42 1730.92C1146.42 1738.4 1148.14 1745.15 1151.59 1751.16C1155.11 1757.1 1159.85 1761.76 1165.79 1765.13ZM1199.04 1755.78C1195.08 1758.06 1190.56 1759.19 1185.5 1759.19C1180.44 1759.19 1175.92 1758.06 1171.96 1755.78C1167.99 1753.44 1164.87 1750.14 1162.6 1745.88C1160.4 1741.56 1159.3 1736.57 1159.3 1730.92C1159.3 1725.28 1160.4 1720.33 1162.6 1716.07C1164.87 1711.82 1167.99 1708.56 1171.96 1706.28C1175.92 1704.01 1180.44 1702.87 1185.5 1702.87C1190.56 1702.87 1195.08 1704.01 1199.04 1706.28C1203.01 1708.56 1206.09 1711.82 1208.29 1716.07C1210.56 1720.33 1211.7 1725.28 1211.7 1730.92C1211.7 1736.57 1210.56 1741.56 1208.29 1745.88C1206.09 1750.14 1203.01 1753.44 1199.04 1755.78ZM1287.25 1769.31H1299.8V1692.75H1287.25V1749.73L1249.48 1692.75H1236.93V1769.31H1249.48V1712.22L1287.25 1769.31ZM1327.62 1767.44C1331.73 1769.2 1336.35 1770.08 1341.49 1770.08C1346.92 1770.08 1351.62 1769.06 1355.58 1767C1359.62 1764.88 1362.67 1762.09 1364.72 1758.64C1366.85 1755.2 1367.91 1751.53 1367.91 1747.64C1367.91 1742.8 1366.78 1738.95 1364.5 1736.09C1362.3 1733.16 1359.58 1731 1356.35 1729.6C1353.2 1728.21 1349.09 1726.82 1344.02 1725.42C1340.21 1724.4 1337.2 1723.44 1335 1722.56C1332.79 1721.68 1330.96 1720.51 1329.49 1719.04C1328.1 1717.5 1327.4 1715.56 1327.4 1713.21C1327.4 1709.77 1328.54 1707.13 1330.81 1705.29C1333.09 1703.46 1336.02 1702.54 1339.62 1702.54C1343.58 1702.54 1346.78 1703.53 1349.2 1705.51C1351.62 1707.49 1352.94 1709.88 1353.16 1712.66H1367.03C1366.52 1706.21 1363.88 1701.15 1359.11 1697.48C1354.41 1693.74 1348.35 1691.87 1340.94 1691.87C1335.73 1691.87 1331.14 1692.75 1327.18 1694.51C1323.22 1696.27 1320.13 1698.8 1317.93 1702.1C1315.73 1705.4 1314.63 1709.25 1314.63 1713.65C1314.63 1718.42 1315.73 1722.23 1317.93 1725.09C1320.13 1727.95 1322.78 1730.08 1325.86 1731.47C1329.01 1732.79 1333.09 1734.11 1338.08 1735.43C1342.04 1736.46 1345.12 1737.41 1347.33 1738.29C1349.6 1739.17 1351.47 1740.42 1352.94 1742.03C1354.48 1743.65 1355.25 1745.74 1355.25 1748.3C1355.25 1751.6 1354.04 1754.32 1351.62 1756.44C1349.2 1758.5 1345.82 1759.52 1341.49 1759.52C1337.31 1759.52 1334.04 1758.46 1331.69 1756.33C1329.42 1754.21 1328.13 1751.49 1327.84 1748.19H1314.41C1314.41 1752.59 1315.58 1756.44 1317.93 1759.74C1320.28 1763.04 1323.51 1765.61 1327.62 1767.44ZM718.411 1730.06H580.792V1726.06H718.411V1730.06ZM1430.59 1730.06H1568.21V1726.06H1430.59V1730.06Z" fill="white"/>
<path fill-rule="evenodd" clip-rule="evenodd" d="M392.892 762.714L305.247 682.967L235.646 796.156L191.823 852.751L145.423 909.346L93.8671 968.513L32 1035.4L171.201 932.498L240.802 873.331L305.247 806.446L398.047 847.606L452.181 796.156L506.315 739.561L570.76 664.959L604.271 623.799L704.805 664.959L836.273 533.762L880.095 580.067L923.918 623.799L970.318 664.959L1021.07 698.048L1020.25 698.663L979.804 729.453L930.42 765.445L865.022 811.813L821.212 840.397L760.26 878.508L797.72 869.615L842.8 856.911L891.054 835.315L962.843 793.6L1028.08 747.415L1098.54 698.663L1161.16 647.345L1192.48 673.004L1223.79 698.663L1257.71 724.322L1289 748.324L1178.53 842.303L1145.84 811.813L1050.72 886.397L937.601 958.409L711.37 1087L811.631 1053.57L937.601 1002.13L1050.72 948.121L1145.84 886.397L1215.25 927.546L1253.81 942.977L1297.51 953.265L1211.96 873.485L1423.36 702.294L1617.38 887.328L1922.92 895.063L1961.27 927.26L1999.82 953.857L2032.41 974.383L2119 1030.32L2045.98 964.892L1983.76 902.009L1974.48 892.708L1804.52 711.942L1714.37 709.659L1715.87 649.994L1649.69 648.319L1648.18 707.984L1499.82 704.229L1425.13 632.515L1334.56 709.559L1299.46 685.834L1252.49 649.91L1208.13 616.554L1166.38 578.066L1098.54 639.647L1064.75 665.206L1014.14 623.799L949.696 559.487L841.428 418L807.917 461.732L769.25 502.892L722.85 549.197L689.338 572.349L581.071 533.762L539.826 598.074L490.848 657.242L439.292 718.981L392.892 762.714ZM1369.15 810.543H1411.71V852.712H1369.15V810.543ZM1411.71 868.525H1369.15V910.694H1411.71V868.525ZM1427.66 868.525H1470.21V910.694H1427.66V868.525ZM1470.21 810.543H1427.66V852.712H1470.21V810.543Z" fill="white"/>
</g>
<rect x="71" y="71" width="2008" height="2008" rx="1004" stroke="white" stroke-width="80"/>
<rect x="7.5" y="7.5" width="2135" height="2135" rx="1067.5" stroke="white" stroke-width="15"/>
<defs>
<clipPath id="clip0_110_26">
<rect x="31" y="31" width="2088" height="2088" rx="1044" fill="white"/>
</clipPath>
</defs>
</svg>
